<?xml version="1.0" standalone="no"?>
<!DOCTYPE svg PUBLIC "-//W3C//DTD SVG 20010904//EN"
 "http://www.w3.org/TR/2001/REC-SVG-20010904/DTD/svg10.dtd">
<svg version="1.0" xmlns="http://www.w3.org/2000/svg"
 width="245.000000pt" height="245.000000pt" viewBox="0 0 245.000000 245.000000"
 preserveAspectRatio="xMidYMid meet">
<metadata>
Created by potrace 1.11, written by Peter Selinger 2001-2013
</metadata>
<g transform="translate(0.000000,245.000000) scale(0.100000,-0.100000)"
fill="#000000" stroke="none">
<path d="M290 1295 l0 -955 310 0 310 0 0 386 0 387 63 -5 c76 -6 134 -34 179
-87 19 -22 93 -145 165 -273 71 -128 152 -272 179 -320 l49 -87 348 -1 c191 0
347 2 347 5 0 3 -13 26 -29 52 -16 27 -81 149 -146 273 -124 238 -163 298
-260 396 -47 48 -74 65 -128 85 l-68 25 63 18 c203 56 359 211 397 394 15 74
13 195 -4 271 -42 177 -176 310 -360 355 -124 31 -235 36 -822 36 l-593 0 0
-955z m1022 551 c29 -7 66 -21 81 -31 66 -43 89 -169 44 -236 -54 -80 -115
-98 -354 -106 l-173 -6 0 197 0 197 175 -1 c98 -1 198 -7 227 -14z"/>
</g>
</svg>
